<svg width="13" height="13" viewBox="0 0 13 13" fill="none" xmlns="http://www.w3.org/2000/svg">
<g clip-path="url(#clip0_68_269)">
<path d="M12.1825 10.9246L8.53225 7.44818C9.09869 6.75075 9.40511 5.89803 9.40511 5.00115C9.40511 3.92756 8.96516 2.9209 8.16961 2.16189C7.37406 1.40288 6.31426 0.985229 5.18839 0.985229C4.06253 0.985229 3.00273 1.40422 2.20718 2.16189C1.41022 2.91956 0.97168 3.92756 0.97168 5.00115C0.97168 6.0734 1.41162 7.08273 2.20718 7.8404C3.00273 8.59941 4.06112 9.01706 5.18839 9.01706C6.13013 9.01706 7.02407 8.72524 7.75637 8.18711L11.4066 11.6622C11.4173 11.6724 11.4301 11.6805 11.444 11.686C11.458 11.6915 11.473 11.6944 11.4882 11.6944C11.5033 11.6944 11.5183 11.6915 11.5323 11.686C11.5463 11.6805 11.559 11.6724 11.5697 11.6622L12.1825 11.0799C12.1932 11.0697 12.2017 11.0576 12.2075 11.0443C12.2133 11.031 12.2163 11.0167 12.2163 11.0023C12.2163 10.9878 12.2133 10.9736 12.2075 10.9602C12.2017 10.9469 12.1932 10.9348 12.1825 10.9246ZM7.41482 7.12155C6.81886 7.6878 6.02892 7.9997 5.18839 7.9997C4.34786 7.9997 3.55793 7.6878 2.96197 7.12155C2.36741 6.55397 2.03991 5.80165 2.03991 5.00115C2.03991 4.20064 2.36741 3.44699 2.96197 2.88074C3.55793 2.3145 4.34786 2.0026 5.18839 2.0026C6.02892 2.0026 6.82026 2.31316 7.41482 2.88074C8.00937 3.44833 8.33687 4.20064 8.33687 5.00115C8.33687 5.80165 8.00937 6.55531 7.41482 7.12155Z" fill="#878888"/>
</g>
<defs>
<clipPath id="clip0_68_269">
<rect width="12.5939" height="11.9942" fill="white" transform="translate(0.296875 0.342682)"/>
</clipPath>
</defs>
</svg>
